<svg width="33" height="33" viewBox="0 0 33 33" fill="none" xmlns="http://www.w3.org/2000/svg">
<path d="M28.8748 31.2812H4.12482C3.56107 31.2812 3.09357 30.8138 3.09357 30.25C3.09357 29.6863 3.56107 29.2188 4.12482 29.2188H28.8748C29.4386 29.2188 29.9061 29.6863 29.9061 30.25C29.9061 30.8138 29.4386 31.2812 28.8748 31.2812Z" fill="#7B7B7B"/>
<path d="M7.69979 27.1561H5.49982C4.17982 27.1561 3.09357 26.0699 3.09357 24.7499V12.8973C3.09357 11.5773 4.17982 10.4911 5.49982 10.4911H7.69979C9.01979 10.4911 10.106 11.5773 10.106 12.8973V24.7499C10.106 26.0699 9.01979 27.1561 7.69979 27.1561ZM5.49982 12.5398C5.30732 12.5398 5.15607 12.6911 5.15607 12.8836V24.7499C5.15607 24.9424 5.30732 25.0936 5.49982 25.0936H7.69979C7.89229 25.0936 8.04354 24.9424 8.04354 24.7499V12.8973C8.04354 12.7048 7.89229 12.5536 7.69979 12.5536H5.49982V12.5398Z" fill="#7B7B7B"/>
<path d="M17.6001 27.1561H15.4001C14.0801 27.1561 12.9938 26.0698 12.9938 24.7498V8.51111C12.9938 7.19111 14.0801 6.10486 15.4001 6.10486H17.6001C18.9201 6.10486 20.0063 7.19111 20.0063 8.51111V24.7498C20.0063 26.0698 18.9201 27.1561 17.6001 27.1561ZM15.4001 8.16736C15.2076 8.16736 15.0563 8.31861 15.0563 8.51111V24.7498C15.0563 24.9423 15.2076 25.0936 15.4001 25.0936H17.6001C17.7926 25.0936 17.9438 24.9423 17.9438 24.7498V8.51111C17.9438 8.31861 17.7926 8.16736 17.6001 8.16736H15.4001Z" fill="#7B7B7B"/>
<path d="M27.5004 27.1562H25.3004C23.9804 27.1562 22.8941 26.07 22.8941 24.75V4.125C22.8941 2.805 23.9804 1.71875 25.3004 1.71875H27.5004C28.8204 1.71875 29.9066 2.805 29.9066 4.125V24.75C29.9066 26.07 28.8204 27.1562 27.5004 27.1562ZM25.3004 3.78125C25.1079 3.78125 24.9566 3.9325 24.9566 4.125V24.75C24.9566 24.9425 25.1079 25.0938 25.3004 25.0938H27.5004C27.6929 25.0938 27.8441 24.9425 27.8441 24.75V4.125C27.8441 3.9325 27.6929 3.78125 27.5004 3.78125H25.3004Z" fill="#7B7B7B"/>
</svg>
