<svg width="33" height="33" viewBox="0 0 33 33" fill="none" xmlns="http://www.w3.org/2000/svg">
<path d="M11.3711 31.2811H5.81607C3.05232 31.2811 1.71857 30.0024 1.71857 27.3624V5.63738C1.71857 2.99738 3.06607 1.71863 5.81607 1.71863H11.3711C14.1348 1.71863 15.4686 2.99738 15.4686 5.63738V27.3624C15.4686 30.0024 14.1211 31.2811 11.3711 31.2811ZM5.81607 3.78113C4.06982 3.78113 3.78107 4.24863 3.78107 5.63738V27.3624C3.78107 28.7511 4.06982 29.2186 5.81607 29.2186H11.3711C13.1173 29.2186 13.4061 28.7511 13.4061 27.3624V5.63738C13.4061 4.24863 13.1173 3.78113 11.3711 3.78113H5.81607Z" fill="#7B7B7B"/>
<path d="M27.1836 18.9061H21.6286C18.8648 18.9061 17.5311 17.6274 17.5311 14.9874V5.63738C17.5311 2.99738 18.8786 1.71863 21.6286 1.71863H27.1836C29.9473 1.71863 31.2811 2.99738 31.2811 5.63738V14.9874C31.2811 17.6274 29.9336 18.9061 27.1836 18.9061ZM21.6286 3.78113C19.8823 3.78113 19.5936 4.24863 19.5936 5.63738V14.9874C19.5936 16.3761 19.8823 16.8436 21.6286 16.8436H27.1836C28.9298 16.8436 29.2186 16.3761 29.2186 14.9874V5.63738C29.2186 4.24863 28.9298 3.78113 27.1836 3.78113H21.6286Z" fill="#7B7B7B"/>
<path d="M27.1836 31.2811H21.6286C18.8648 31.2811 17.5311 30.0024 17.5311 27.3624V24.8874C17.5311 22.2474 18.8786 20.9686 21.6286 20.9686H27.1836C29.9473 20.9686 31.2811 22.2474 31.2811 24.8874V27.3624C31.2811 30.0024 29.9336 31.2811 27.1836 31.2811ZM21.6286 23.0311C19.8823 23.0311 19.5936 23.4986 19.5936 24.8874V27.3624C19.5936 28.7511 19.8823 29.2186 21.6286 29.2186H27.1836C28.9298 29.2186 29.2186 28.7511 29.2186 27.3624V24.8874C29.2186 23.4986 28.9298 23.0311 27.1836 23.0311H21.6286Z" fill="#7B7B7B"/>
</svg>
