<svg width="37" height="37" viewBox="0 0 37 37" fill="none" xmlns="http://www.w3.org/2000/svg">
<path d="M18.5 3.08337C27.0146 3.08337 33.9167 9.98542 33.9167 18.5C33.9167 27.0147 27.0146 33.9167 18.5 33.9167C16.0395 33.9201 13.6142 33.3322 11.4284 32.2024L5.52995 33.8473C5.20087 33.9392 4.85329 33.9419 4.52282 33.8552C4.19235 33.7684 3.89087 33.5954 3.64929 33.3538C3.4077 33.1122 3.23468 32.8108 3.14796 32.4803C3.06125 32.1498 3.06394 31.8022 3.15578 31.4732L4.80228 25.5794C3.6697 23.3917 3.08012 20.9635 3.08333 18.5C3.08333 9.98542 9.98537 3.08337 18.5 3.08337ZM18.5 5.39587C15.0246 5.39587 11.6915 6.77649 9.23395 9.234C6.77644 11.6915 5.39583 15.0246 5.39583 18.5C5.39583 20.7663 5.97087 22.9447 7.05003 24.8779L7.28128 25.2942L5.56695 31.4362L11.7136 29.7218L12.1298 29.9531C13.8787 30.9254 15.827 31.4843 17.8253 31.587C19.8236 31.6896 21.8189 31.3332 23.6582 30.5452C25.4974 29.7572 27.1318 28.5585 28.4359 27.0409C29.7401 25.5233 30.6794 23.7272 31.1818 21.7904C31.6843 19.8535 31.7365 17.8273 31.3344 15.8672C30.9324 13.907 30.0868 12.0649 28.8625 10.4822C27.6382 8.89953 26.0677 7.61822 24.2715 6.73654C22.4753 5.85487 20.501 5.39626 18.5 5.39587ZM18.5 23.8959C18.9089 23.8959 19.301 24.0583 19.5901 24.3474C19.8792 24.6365 20.0417 25.0287 20.0417 25.4375C20.0417 25.8464 19.8792 26.2385 19.5901 26.5277C19.301 26.8168 18.9089 26.9792 18.5 26.9792C18.0911 26.9792 17.699 26.8168 17.4099 26.5277C17.1208 26.2385 16.9583 25.8464 16.9583 25.4375C16.9583 25.0287 17.1208 24.6365 17.4099 24.3474C17.699 24.0583 18.0911 23.8959 18.5 23.8959ZM18.5 10.4063C19.6244 10.4063 20.7028 10.853 21.4978 11.648C22.2929 12.4431 22.7396 13.5215 22.7396 14.6459C22.7396 16.203 22.2817 17.0725 21.1193 18.2827L20.8587 18.5463C19.8998 19.5052 19.6562 19.9122 19.6562 20.8125C19.6562 21.1192 19.5344 21.4133 19.3176 21.6301C19.1007 21.847 18.8066 21.9688 18.5 21.9688C18.1933 21.9688 17.8992 21.847 17.6824 21.6301C17.4656 21.4133 17.3437 21.1192 17.3437 20.8125C17.3437 19.2555 17.8016 18.386 18.964 17.1757L19.2246 16.9121C20.1835 15.9532 20.4271 15.5462 20.4271 14.6459C20.4255 14.153 20.2351 13.6794 19.895 13.3226C19.5549 12.9658 19.0911 12.7528 18.5988 12.7276C18.1066 12.7023 17.6233 12.8666 17.2485 13.1867C16.8737 13.5068 16.6358 13.9584 16.5837 14.4485L16.5729 14.6459C16.5729 14.9525 16.4511 15.2466 16.2343 15.4635C16.0174 15.6803 15.7233 15.8021 15.4167 15.8021C15.11 15.8021 14.8159 15.6803 14.5991 15.4635C14.3822 15.2466 14.2604 14.9525 14.2604 14.6459C14.2604 13.5215 14.7071 12.4431 15.5022 11.648C16.2972 10.853 17.3756 10.4063 18.5 10.4063Z" fill="#7B7B7B"/>
</svg>
