<svg width="33" height="34" viewBox="0 0 33 34" fill="none" xmlns="http://www.w3.org/2000/svg">
<path d="M16.499 18.8417C16.3202 18.8417 16.1415 18.7992 15.9765 18.7001L3.83519 11.4609C3.34019 11.1634 3.17516 10.5117 3.46391 10.0017C3.75266 9.49169 4.37141 9.32166 4.88016 9.61916L16.499 16.5467L28.0489 9.6617C28.5439 9.3642 29.1764 9.5484 29.4651 10.0442C29.7539 10.5542 29.5752 11.2059 29.094 11.5034L17.0352 18.7001C16.8565 18.7851 16.6777 18.8417 16.499 18.8417Z" fill="#7B7B7B"/>
<path d="M16.4998 31.6769C15.9361 31.6769 15.4686 31.1953 15.4686 30.6144V17.7653C15.4686 17.1844 15.9361 16.7028 16.4998 16.7028C17.0636 16.7028 17.5311 17.1844 17.5311 17.7653V30.6144C17.5311 31.1953 17.0636 31.6769 16.4998 31.6769Z" fill="#7B7B7B"/>
<path d="M16.5006 32.2293C15.2906 32.2293 14.0944 31.9602 13.1457 31.4218L5.80316 27.2143C3.80941 26.081 2.25568 23.3468 2.25568 20.9952V12.991C2.25568 10.6393 3.80941 7.91936 5.80316 6.77186L13.1457 2.5785C15.0294 1.50183 17.9719 1.50183 19.8556 2.5785L27.1982 6.78595C29.1919 7.91929 30.7457 10.6535 30.7457 13.0051V21.0093C30.7457 23.361 29.1919 26.081 27.1982 27.2285L19.8556 31.4218C18.9069 31.9602 17.7106 32.2293 16.5006 32.2293ZM16.5006 3.89598C15.6344 3.89598 14.7819 4.08016 14.1494 4.43433L6.80693 8.64179C5.48693 9.40679 4.31818 11.4326 4.31818 13.0051V21.0093C4.31818 22.5677 5.48693 24.6077 6.80693 25.3727L14.1494 29.5802C15.4006 30.3027 17.6006 30.3027 18.8519 29.5802L26.1944 25.3727C27.5144 24.6077 28.6832 22.5818 28.6832 21.0093V13.0051C28.6832 11.4468 27.5144 9.40679 26.1944 8.64179L18.8519 4.43433C18.2194 4.08016 17.3669 3.89598 16.5006 3.89598Z" fill="#7B7B7B"/>
<path d="M23.3765 19.8193C22.8127 19.8193 22.3452 19.3377 22.3452 18.7568V14.1953L9.80516 6.74359C9.31016 6.44609 9.14514 5.7944 9.43389 5.29856C9.72264 4.78856 10.3414 4.61853 10.8364 4.91603L23.8852 12.6794C24.2015 12.8636 24.4077 13.2177 24.4077 13.6002V18.7853C24.4077 19.3378 23.9402 19.8193 23.3765 19.8193Z" fill="#7B7B7B"/>
</svg>
