<svg width="33" height="34" viewBox="0 0 33 34" fill="none" xmlns="http://www.w3.org/2000/svg">
<path d="M12.5956 16.4613C12.5543 16.4613 12.5268 16.4613 12.4856 16.4613C12.4168 16.4472 12.3206 16.4472 12.2381 16.4613C8.25057 16.3338 5.23932 13.1038 5.23932 9.12301C5.23932 5.07134 8.44307 1.77051 12.3756 1.77051C16.308 1.77051 19.5118 5.07134 19.5118 9.12301C19.498 13.1038 16.473 16.3338 12.6368 16.4613C12.6231 16.4613 12.6093 16.4613 12.5956 16.4613ZM12.3756 3.89551C9.58432 3.89551 7.30182 6.24717 7.30182 9.12301C7.30182 11.9563 9.44682 14.2372 12.1831 14.3363C12.2656 14.3222 12.4443 14.3222 12.6231 14.3363C15.318 14.2088 17.4355 11.928 17.4493 9.12301C17.4493 6.24717 15.1668 3.89551 12.3756 3.89551Z" fill="#7B7B7B"/>
<path d="M22.7428 16.6455C22.7016 16.6455 22.6603 16.6455 22.6191 16.6314C22.0553 16.688 21.4778 16.2772 21.4228 15.6964C21.3678 15.1155 21.7116 14.5914 22.2753 14.5205C22.4403 14.5064 22.6191 14.5064 22.7703 14.5064C24.7778 14.393 26.3453 12.693 26.3453 10.6105C26.3453 8.45722 24.6541 6.71472 22.5641 6.71472C22.0003 6.72888 21.5328 6.24722 21.5328 5.66638C21.5328 5.08555 22.0003 4.60388 22.5641 4.60388C25.7816 4.60388 28.4078 7.30972 28.4078 10.6247C28.4078 13.883 25.9328 16.518 22.7841 16.6455C22.7703 16.6455 22.7566 16.6455 22.7428 16.6455Z" fill="#7B7B7B"/>
<path d="M12.608 31.9455C9.91303 31.9455 7.20428 31.2372 5.15553 29.8205C3.24428 28.5172 2.19928 26.7322 2.19928 24.7914C2.19928 22.8505 3.24428 21.0514 5.15553 19.7339C9.28053 16.9147 15.963 16.9147 20.0605 19.7339C21.958 21.0372 23.0168 22.8222 23.0168 24.763C23.0168 26.7039 21.9718 28.503 20.0605 29.8205C17.998 31.2372 15.303 31.9455 12.608 31.9455ZM6.29678 21.5189C4.97678 22.4255 4.26178 23.5872 4.26178 24.8055C4.26178 26.0097 4.99053 27.1714 6.29678 28.0639C9.72053 30.4297 15.4955 30.4297 18.9193 28.0639C20.2393 27.1572 20.9543 25.9955 20.9543 24.7772C20.9543 23.573 20.2255 22.4114 18.9193 21.5189C15.4955 19.1672 9.72053 19.1672 6.29678 21.5189Z" fill="#7B7B7B"/>
<path d="M25.2175 29.3956C24.7363 29.3956 24.31 29.0556 24.2138 28.5456C24.1038 27.9648 24.4613 27.4123 25.0113 27.2848C25.8775 27.1006 26.675 26.7464 27.2938 26.2506C28.0775 25.6414 28.5038 24.8764 28.5038 24.0689C28.5038 23.2614 28.0775 22.4964 27.3075 21.9014C26.7025 21.4198 25.9463 21.0798 25.0525 20.8673C24.5025 20.7398 24.145 20.1731 24.2688 19.5923C24.3925 19.0256 24.9425 18.6573 25.5063 18.7848C26.6888 19.0539 27.72 19.5356 28.5588 20.2014C29.8375 21.1931 30.5663 22.5956 30.5663 24.0689C30.5663 25.5423 29.8238 26.9448 28.545 27.9506C27.6925 28.6306 26.62 29.1264 25.4375 29.3673C25.355 29.3956 25.2863 29.3956 25.2175 29.3956Z" fill="#7B7B7B"/>
</svg>
